<svg width="14.000000" height="15.000000" viewBox="0 0 14 15" fill="none" xmlns="http://www.w3.org/2000/svg" xmlns:xlink="http://www.w3.org/1999/xlink">
	<desc>
			Created with Pixso.
	</desc>
	<defs/>
	<path id="Vector" d="M6.2 -0.27C6.38 -0.36 6.61 -0.36 6.79 -0.27L13.46 3.07C13.69 3.18 13.83 3.41 13.83 3.66C13.83 3.91 13.69 4.14 13.46 4.26L6.79 7.59C6.61 7.68 6.38 7.68 6.2 7.59L-0.47 4.26C-0.7 4.14 -0.84 3.91 -0.84 3.66C-0.84 3.41 -0.7 3.18 -0.47 3.07L6.2 -0.27ZM1.32 3.66L6.5 6.25L11.67 3.66L6.5 1.07L1.32 3.66ZM-0.77 6.7C-0.6 6.37 -0.2 6.23 0.13 6.4L6.5 9.58L12.86 6.4C13.19 6.23 13.59 6.37 13.76 6.7C13.92 7.03 13.79 7.43 13.46 7.59L6.79 10.92C6.61 11.02 6.38 11.02 6.2 10.92L-0.47 7.59C-0.8 7.43 -0.93 7.03 -0.77 6.7ZM0.13 9.73C-0.2 9.57 -0.6 9.7 -0.77 10.03C-0.93 10.36 -0.8 10.76 -0.47 10.92L6.2 14.26C6.38 14.35 6.61 14.35 6.79 14.26L13.46 10.92C13.79 10.76 13.92 10.36 13.76 10.03C13.59 9.7 13.19 9.57 12.86 9.73L6.5 12.91L0.13 9.73Z" fill="#9A9CA5" fill-opacity="1.000000" fill-rule="evenodd"/>
</svg>
