<svg width="16.000000" height="16.000000" viewBox="0 0 16 16" fill="none" xmlns="http://www.w3.org/2000/svg" xmlns:xlink="http://www.w3.org/1999/xlink">
	<desc>
			Created with Pixso.
	</desc>
	<defs>
		<clipPath id="clip27_1064">
			<rect width="16.000000" height="16.000000" transform="translate(-0.500000 0.000000)" fill="white" fill-opacity="0"/>
		</clipPath>
	</defs>
	<g clip-path="url(#clip27_1064)">
		<path d="M8.95 2.16C8.86 2.16 8.77 2.21 8.72 2.29L8.72 2.3L5.66 7.26L5.66 13.83L11.39 13.83C11.51 13.83 11.61 13.74 11.64 13.62L11.64 13.61L13.34 6.97C13.37 6.81 13.25 6.66 13.09 6.66L10.5 6.66C10.06 6.66 9.62 6.52 9.3 6.21C8.97 5.88 8.81 5.41 8.91 4.9L9.39 2.48C9.42 2.31 9.3 2.16 9.13 2.16L8.95 2.16ZM4.33 13.83L4.33 7.73L1.97 7.73C1.82 7.73 1.71 7.85 1.7 7.99L1.66 13.57C1.66 13.71 1.78 13.83 1.92 13.83L4.33 13.83ZM4.62 6.4L7.58 1.61C7.86 1.13 8.39 0.83 8.95 0.83L9.13 0.83C10.14 0.83 10.89 1.75 10.7 2.73L10.22 5.16C10.21 5.2 10.21 5.22 10.22 5.23C10.22 5.23 10.22 5.24 10.23 5.25C10.26 5.28 10.34 5.33 10.5 5.33L13.09 5.33C14.11 5.33 14.87 6.27 14.64 7.27L14.64 7.28L12.94 13.92C12.77 14.65 12.13 15.16 11.39 15.16L1.92 15.16C1.04 15.16 0.32 14.44 0.33 13.56L0.37 7.98C0.38 7.11 1.09 6.4 1.97 6.4L4.62 6.4Z" fill="#9A9CA5" fill-opacity="1.000000" fill-rule="evenodd"/>
	</g>
</svg>
