<svg width="16.000000" height="16.000000" viewBox="0 0 16 16" fill="none" xmlns="http://www.w3.org/2000/svg" xmlns:xlink="http://www.w3.org/1999/xlink">
	<desc>
			Created with Pixso.
	</desc>
	<defs/>
	<path id="Star (Stroke)" d="M6.77 1.46C7.24 0.39 8.75 0.39 9.22 1.46L10.62 4.69L14.12 5.03C15.28 5.14 15.75 6.58 14.88 7.35L12.24 9.68L13 13.12C13.26 14.25 12.03 15.14 11.03 14.55L8 12.76L4.96 14.55C3.96 15.14 2.73 14.25 2.99 13.12L3.75 9.68L1.11 7.35C0.24 6.58 0.71 5.14 1.87 5.03L5.37 4.69L6.77 1.46ZM9.4 5.22L8 1.99L6.59 5.22C6.4 5.67 5.98 5.97 5.5 6.02L1.99 6.35L4.63 8.68C5 9 5.16 9.5 5.05 9.97L4.29 13.41L7.32 11.62C7.74 11.37 8.25 11.37 8.67 11.62L11.7 13.41L10.94 9.97C10.83 9.5 10.99 9 11.36 8.68L14 6.35L10.49 6.02C10.01 5.97 9.59 5.67 9.4 5.22Z" fill="#9A9CA5" fill-opacity="1.000000" fill-rule="evenodd"/>
</svg>
