<svg width="71" height="92" viewBox="0 0 71 92" fill="none" xmlns="http://www.w3.org/2000/svg">
<path d="M66.39 -6.19888e-06H67.95C69.6833 -6.19888e-06 70.55 0.866662 70.55 2.6C70.55 2.94666 70.5067 3.24999 70.42 3.51L40.78 87.62C40 89.96 38.31 91.13 35.71 91.13C33.11 91.13 31.3767 89.9167 30.51 87.49L0.61 3.51C0.523333 3.24999 0.48 2.94666 0.48 2.6C0.48 0.866662 1.34667 -6.19888e-06 3.08 -6.19888e-06H4.64C5.68 -6.19888e-06 6.50333 0.563328 7.11 1.69L35.58 82.81L63.92 1.69C64.44 0.563328 65.2633 -6.19888e-06 66.39 -6.19888e-06Z" fill="white"/>
</svg>
