<svg width="188" height="169" viewBox="0 0 188 169" fill="none" xmlns="http://www.w3.org/2000/svg">
<path d="M180.44 -1.14441e-05H183.08C184.84 -1.14441e-05 186.04 0.559991 186.68 1.68C187.48 2.63999 187.88 3.51999 187.88 4.31999C187.88 4.95999 187.8 5.51999 187.64 6L144.68 160.32C143.08 165.6 139.72 168.24 134.6 168.24C129.64 168.24 126.44 165.6 125 160.32L95.48 54.72L65.96 160.8C64.2 165.76 60.92 168.24 56.12 168.24C51.48 168.24 48.28 165.76 46.52 160.8L1.16 6.23999C1 5.59999 0.92 4.87999 0.92 4.07999C0.92 3.27999 1.32 2.4 2.12 1.44C2.76 0.479992 3.96 -1.14441e-05 5.72 -1.14441e-05H8.12C10.04 -1.14441e-05 11.56 1.11999 12.68 3.35999L56.36 151.68L87.32 41.04C88.6 36.56 91.4 34.32 95.72 34.32C100.2 34.32 102.92 36.64 103.88 41.28C107.24 53.44 112.36 71.84 119.24 96.48C126.28 120.96 131.48 139.28 134.84 151.44L175.88 3.59999C176.2 2.79999 176.76 1.99999 177.56 1.19999C178.52 0.399988 179.48 -1.14441e-05 180.44 -1.14441e-05Z" fill="white"/>
</svg>
