<svg width="15.000000" height="15.000000" viewBox="0 0 15 15" fill="none" xmlns="http://www.w3.org/2000/svg" xmlns:xlink="http://www.w3.org/1999/xlink">
	<desc>
			Created with Pixso.
	</desc>
	<defs/>
	<path id="Vector" d="M14.33 7C14.33 11.04 11.04 14.33 7 14.33C2.95 14.33 -0.34 11.04 -0.34 7C-0.34 2.95 2.95 -0.34 7 -0.34C8.46 -0.34 9.88 0.09 11.09 0.91C11.37 1.09 11.44 1.47 11.25 1.75C11.06 2.03 10.68 2.11 10.4 1.92C9.4 1.24 8.22 0.88 7 0.88C3.63 0.88 0.88 3.63 0.88 7C0.88 10.37 3.63 13.11 7 13.11C10.36 13.11 13.11 10.37 13.11 7C13.11 6.41 13.02 5.84 12.87 5.29C12.77 4.97 12.96 4.63 13.28 4.54C13.6 4.44 13.94 4.63 14.04 4.95C14.23 5.61 14.33 6.3 14.33 7ZM7 7.39L13.86 0.52C14.12 0.26 14.54 0.26 14.8 0.52C15.06 0.78 15.06 1.21 14.8 1.47L7.47 8.8C7.34 8.93 7.17 9 7 9C6.82 9 6.65 8.93 6.52 8.8L3.86 6.13C3.6 5.87 3.6 5.45 3.86 5.19C4.12 4.93 4.54 4.93 4.8 5.19L7 7.39Z" fill="#FF3F3A" fill-opacity="1.000000" fill-rule="evenodd"/>
</svg>
