<svg width="13.000000" height="15.000000" viewBox="0 0 13 15" fill="none" xmlns="http://www.w3.org/2000/svg" xmlns:xlink="http://www.w3.org/1999/xlink">
	<desc>
			Created with Pixso.
	</desc>
	<defs/>
	<path d="M6 -0.17C3.97 -0.17 2.33 1.47 2.33 3.5C2.33 5.52 3.97 7.16 6 7.16C8.02 7.16 9.66 5.52 9.66 3.5C9.66 1.47 8.02 -0.17 6 -0.17ZM3.66 3.5C3.66 2.21 4.71 1.16 6 1.16C7.28 1.16 8.33 2.21 8.33 3.5C8.33 4.78 7.28 5.83 6 5.83C4.71 5.83 3.66 4.78 3.66 3.5ZM2.06 7.83C1.19 7.83 0.29 8.27 -0.12 9.16C-0.35 9.67 -0.6 10.36 -0.66 11.08C-0.72 11.74 -0.45 12.42 0.17 12.8C1.07 13.36 2.9 14.16 6 14.16C9.09 14.16 10.92 13.36 11.82 12.8C12.44 12.42 12.71 11.74 12.65 11.08C12.59 10.36 12.34 9.67 12.11 9.16C11.7 8.27 10.8 7.83 9.93 7.83L2.06 7.83ZM1.09 9.71C1.24 9.39 1.6 9.16 2.06 9.16L9.93 9.16C10.39 9.16 10.75 9.39 10.9 9.71C11.1 10.16 11.28 10.69 11.33 11.2C11.35 11.42 11.25 11.59 11.12 11.67C10.44 12.09 8.85 12.83 6 12.83C3.14 12.83 1.55 12.09 0.87 11.67C0.74 11.59 0.64 11.42 0.66 11.2C0.71 10.69 0.89 10.16 1.09 9.71Z" fill="#FF3F3A" fill-opacity="1.000000" fill-rule="evenodd"/>
</svg>
