<svg width="15.000000" height="14.000000" viewBox="0 0 15 14" fill="none" xmlns="http://www.w3.org/2000/svg" xmlns:xlink="http://www.w3.org/1999/xlink">
	<desc>
			Created with Pixso.
	</desc>
	<defs/>
	<path id="Star (Stroke)" d="M5.77 0.46C6.24 -0.61 7.75 -0.61 8.22 0.46L9.62 3.69L13.12 4.03C14.28 4.14 14.75 5.58 13.88 6.35L11.24 8.68L12 12.12C12.26 13.25 11.03 14.14 10.03 13.55L7 11.76L3.96 13.55C2.96 14.14 1.73 13.25 1.99 12.12L2.75 8.68L0.11 6.35C-0.76 5.58 -0.29 4.14 0.87 4.03L4.37 3.69L5.77 0.46ZM8.4 4.22L7 0.99L5.59 4.22C5.4 4.67 4.98 4.97 4.5 5.02L0.99 5.35L3.63 7.68C4 8 4.16 8.5 4.05 8.97L3.29 12.41L6.32 10.62C6.74 10.37 7.25 10.37 7.67 10.62L10.7 12.41L9.94 8.97C9.83 8.5 9.99 8 10.36 7.68L13 5.35L9.49 5.02C9.01 4.97 8.59 4.67 8.4 4.22Z" fill="#FF3F3A" fill-opacity="1.000000" fill-rule="evenodd"/>
</svg>
